<svg width="32" height="32" viewBox="0 0 32 32" fill="none" xmlns="http://www.w3.org/2000/svg">
<rect width="32" height="32" rx="5" fill="#202020"/>
<path d="M5.26667 20.8125H26.2667C26.5972 20.8125 26.8745 20.9245 27.0985 21.1485C27.3225 21.3725 27.4341 21.6494 27.4333 21.9792C27.4326 22.3089 27.3206 22.5862 27.0973 22.811C26.8741 23.0358 26.5972 23.1474 26.2667 23.1458H5.26667C4.93612 23.1458 4.65923 23.0338 4.43601 22.8098C4.21278 22.5858 4.10078 22.3089 4.10001 21.9792C4.09923 21.6494 4.21123 21.3725 4.43601 21.1485C4.66078 20.9245 4.93767 20.8125 5.26667 20.8125ZM6.43334 14.3375L5.87917 15.3292C5.76251 15.5431 5.58751 15.6792 5.35417 15.7375C5.12084 15.7958 4.89723 15.7667 4.68334 15.65C4.46945 15.5333 4.33334 15.3583 4.27501 15.125C4.21667 14.8917 4.24584 14.6681 4.36251 14.4542L4.91667 13.4625H3.80834C3.55556 13.4625 3.34673 13.3801 3.18184 13.2152C3.01695 13.0503 2.93412 12.8411 2.93334 12.5875C2.93256 12.3339 3.01539 12.1251 3.18184 11.961C3.34828 11.7969 3.55712 11.7141 3.80834 11.7125H4.91667L4.36251 10.7792C4.24584 10.5653 4.21667 10.3417 4.27501 10.1083C4.33334 9.875 4.46945 9.7 4.68334 9.58333C4.89723 9.46667 5.12084 9.4375 5.35417 9.49583C5.58751 9.55417 5.76251 9.69028 5.87917 9.90417L6.43334 10.8375L6.9875 9.90417C7.10417 9.69028 7.27917 9.55417 7.51251 9.49583C7.74584 9.4375 7.96945 9.46667 8.18334 9.58333C8.39723 9.7 8.53334 9.875 8.59167 10.1083C8.65 10.3417 8.62084 10.5653 8.50417 10.7792L7.95001 11.7125H9.05834C9.31112 11.7125 9.52034 11.7953 9.686 11.961C9.85167 12.1267 9.93412 12.3355 9.93334 12.5875C9.93256 12.8395 9.84973 13.0487 9.68484 13.2152C9.51995 13.3816 9.31112 13.4641 9.05834 13.4625H7.95001L8.50417 14.4542C8.62084 14.6681 8.65 14.8917 8.59167 15.125C8.53334 15.3583 8.39723 15.5333 8.18334 15.65C7.96945 15.7667 7.74584 15.7958 7.51251 15.7375C7.27917 15.6792 7.10417 15.5431 6.9875 15.3292L6.43334 14.3375ZM15.7667 14.3375L15.2125 15.3292C15.0958 15.5431 14.9208 15.6792 14.6875 15.7375C14.4542 15.7958 14.2306 15.7667 14.0167 15.65C13.8028 15.5333 13.6667 15.3583 13.6083 15.125C13.55 14.8917 13.5792 14.6681 13.6958 14.4542L14.25 13.4625H13.1417C12.8889 13.4625 12.6801 13.3801 12.5152 13.2152C12.3503 13.0503 12.2674 12.8411 12.2667 12.5875C12.2659 12.3339 12.3487 12.1251 12.5152 11.961C12.6816 11.7969 12.8904 11.7141 13.1417 11.7125H14.25L13.6958 10.7792C13.5792 10.5653 13.55 10.3417 13.6083 10.1083C13.6667 9.875 13.8028 9.7 14.0167 9.58333C14.2306 9.46667 14.4542 9.4375 14.6875 9.49583C14.9208 9.55417 15.0958 9.69028 15.2125 9.90417L15.7667 10.8375L16.3208 9.90417C16.4375 9.69028 16.6125 9.55417 16.8458 9.49583C17.0792 9.4375 17.3028 9.46667 17.5167 9.58333C17.7306 9.7 17.8667 9.875 17.925 10.1083C17.9833 10.3417 17.9542 10.5653 17.8375 10.7792L17.2833 11.7125H18.3917C18.6444 11.7125 18.8533 11.7953 19.0182 11.961C19.1831 12.1267 19.2659 12.3355 19.2667 12.5875C19.2674 12.8395 19.1846 13.0487 19.0182 13.2152C18.8517 13.3816 18.6429 13.4641 18.3917 13.4625H17.2833L17.8375 14.4542C17.9542 14.6681 17.9833 14.8917 17.925 15.125C17.8667 15.3583 17.7306 15.5333 17.5167 15.65C17.3028 15.7667 17.0792 15.7958 16.8458 15.7375C16.6125 15.6792 16.4375 15.5431 16.3208 15.3292L15.7667 14.3375ZM25.1 14.3375L24.5458 15.3292C24.4292 15.5431 24.2542 15.6792 24.0208 15.7375C23.7875 15.7958 23.5639 15.7667 23.35 15.65C23.1361 15.5333 23 15.3583 22.9417 15.125C22.8833 14.8917 22.9125 14.6681 23.0292 14.4542L23.5833 13.4625H22.475C22.2222 13.4625 22.0134 13.3801 21.8485 13.2152C21.6836 13.0503 21.6008 12.8411 21.6 12.5875C21.5992 12.3339 21.6821 12.1251 21.8485 11.961C22.0149 11.7969 22.2238 11.7141 22.475 11.7125H23.5833L23.0292 10.7792C22.9125 10.5653 22.8833 10.3417 22.9417 10.1083C23 9.875 23.1361 9.7 23.35 9.58333C23.5639 9.46667 23.7875 9.4375 24.0208 9.49583C24.2542 9.55417 24.4292 9.69028 24.5458 9.90417L25.1 10.8375L25.6542 9.90417C25.7708 9.69028 25.9458 9.55417 26.1792 9.49583C26.4125 9.4375 26.6361 9.46667 26.85 9.58333C27.0639 9.7 27.2 9.875 27.2583 10.1083C27.3167 10.3417 27.2875 10.5653 27.1708 10.7792L26.6167 11.7125H27.725C27.9778 11.7125 28.187 11.7953 28.3527 11.961C28.5183 12.1267 28.6008 12.3355 28.6 12.5875C28.5992 12.8395 28.5164 13.0487 28.3515 13.2152C28.1866 13.3816 27.9778 13.4641 27.725 13.4625H26.6167L27.1708 14.4542C27.2875 14.6681 27.3167 14.8917 27.2583 15.125C27.2 15.3583 27.0639 15.5333 26.85 15.65C26.6361 15.7667 26.4125 15.7958 26.1792 15.7375C25.9458 15.6792 25.7708 15.5431 25.6542 15.3292L25.1 14.3375Z" fill="#64EC83"/>
</svg>
